# xmcd CD database file
#
# Track frame offsets:
#	150
#	23060
#	42380
#	63897
#	81630
#	99990
#	124242
#	151362
#	174502
#	194165
#	212275
#	230410
#	254840
#	272482
#	300635
#
# Disc length: 4234 seconds
#
# Revision: 1
# Processed by: cddbd v1.5PL3 Copyright (c) Steve Scherf et al.
# Submitted via: CDex 1.50beta10
#
DISCID=d010880f
DTITLE=@ - スーパーユーロクリスマス２
DYEAR=1999
DGENRE=Eurodance
TTITLE0=NIGHT OF FIRE(Xmas)_NIKO
TTITLE1=MERRY X MAS_DAVE AND DOMINO
TTITLE2=ALL I WANT FOR CHRISMAS IS YOU_CHERRY
TTITLE3=HAPPY XMAS_DAVE AND DOMINO
TTITLE4=CHRISTMAS IN TOKYO_TIME ALL STARS
TTITLE5=SANTA CLAUS IS COMING TO TOWN_ROSE F.ATRIUM
TTITLE6=RUDOLPHTHE RED NOSED REINDEER_KARINA
TTITLE7=MERRY CHRISTMAS TO ALL?_CHERRY
TTITLE8=WE SAY MERRY CHRISTMAS_VIRGINELLE
TTITLE9=MERRY CHRISTMAS BABY_DAVE RODGERS
TTITLE10=WONDERFUL X-MAS_SILVER
TTITLE11=JINGLE BELLS_HELENA
TTITLE12=THREE MUST BE AN ANGEL_LESILE PARRISH
TTITLE13=LAST CHRISTMAS_7TH HEVEN
TTITLE14=SILENT NIGHT_NORMA SHEFFIELD
EXTD=YEAR: 1999/11/3
EXTT0=
EXTT1=
EXTT2=
EXTT3=
EXTT4=
EXTT5=
EXTT6=
EXTT7=
EXTT8=
EXTT9=
EXTT10=
EXTT11=
EXTT12=
EXTT13=
EXTT14=
PLAYORDER=
